<?xml version="1.0" encoding="UTF-8"?>
<svg xmlns="http://www.w3.org/2000/svg" data-name="Layer 1" viewBox="0 0 100 100" width="64" height="64"><path fill="#03234b" d="M35.51 32.59A14.48 14.48 0 0 1 50 18.11a14.48 14.48 0 0 1 14.47 14.48v16.87h-29zM33.22 52.69h33.55v8.43H33.22zM59.28 72.96H58v19.25h-1.66V72.96h-1.28v-8.65h4.22v8.65zM44.92 72.96h-1.28v22.61h-1.66V72.96H40.7v-8.65h4.22v8.65zM31.47 34h-8.4a1.34 1.34 0 1 1 0-2.67h8.4a1.34 1.34 0 1 1 0 2.67zM36.88 20.93a1.33 1.33 0 0 1-.94-.39L30 14.6a1.34 1.34 0 1 1 1.89-1.9l5.94 5.94a1.35 1.35 0 0 1 0 1.9 1.33 1.33 0 0 1-.95.39zM50 15.51a1.33 1.33 0 0 1-1.34-1.33V5.77a1.34 1.34 0 1 1 2.68 0v8.41A1.33 1.33 0 0 1 50 15.51zM63 20.93a1.34 1.34 0 0 1-1-2.29l6-5.94a1.34 1.34 0 0 1 1.89 1.9L64 20.54a1.35 1.35 0 0 1-1 .39zM76.93 34.09h-8.4a1.34 1.34 0 0 1 0-2.68h8.4a1.34 1.34 0 1 1 0 2.68z"/></svg>
